<?xml version="1.0"?>
<svg xmlns="http://www.w3.org/2000/svg" xmlns:xlink="http://www.w3.org/1999/xlink" xmlns:svgjs="http://svgjs.com/svgjs" version="1.1" width="512" height="512" x="0" y="0" viewBox="0 0 452 452.5" style="enable-background:new 0 0 512 512" xml:space="preserve" class=""><g><path xmlns="http://www.w3.org/2000/svg" d="m242.941406 40.441406s6.816406 25.316406 26.441406 26.492188c0 0-26.199218 9.046875-26.640624 28.402344 0 0-5.15625-27.144532-25.851563-28.117188 0 0 24.101563-3.652344 26.050781-26.777344zm0 0" fill="#d7e057" data-original="#d7e057" style=""/><path xmlns="http://www.w3.org/2000/svg" d="m242.738281 98.335938c-1.425781 0-2.671875-1.011719-2.945312-2.433594-.046875-.25-4.988281-24.835938-23.042969-25.683594-1.542969-.074219-2.777344-1.304688-2.855469-2.84375-.082031-1.539062 1.019531-2.890625 2.546875-3.121094.878906-.136718 21.789063-3.632812 23.507813-24.066406.121093-1.449219 1.269531-2.601562 2.714843-2.734375 1.457032-.117187 2.789063.800781 3.171876 2.203125.058593.230469 6.515624 23.25 23.722656 24.28125 1.429687.085938 2.59375 1.167969 2.792968 2.585938.195313 1.414062-.636718 2.773437-1.988281 3.246093-.242187.082031-24.234375 8.621094-24.625 25.636719-.035156 1.535156-1.21875 2.792969-2.75 2.917969-.082031.007812-.167969.011719-.25.011719zm-15.480469-31.460938c7.757813 3.9375 12.457032 11.492188 15.171876 17.753906 4.054687-8.039062 11.882812-13.574218 17.898437-16.851562-8.269531-3.683594-13.566406-11.304688-16.667969-17.445313-3.585937 8.71875-10.539062 13.734375-16.402344 16.542969zm0 0" fill="#3a312a" data-original="#3a312a" style="" class=""/><path xmlns="http://www.w3.org/2000/svg" d="m199.542969 74.398438s4.820312 17.910156 18.703125 18.738281c0 0-18.53125 6.402343-18.84375 20.089843 0 0-3.648438-19.199218-18.285156-19.886718 0 .003906 17.046874-2.578125 18.425781-18.941406zm0 0" fill="#d7e057" data-original="#d7e057" style=""/><path xmlns="http://www.w3.org/2000/svg" d="m199.398438 116.230469c-1.425782 0-2.671876-1.015625-2.945313-2.441407-.03125-.160156-3.40625-16.882812-15.476563-17.449218-1.542968-.074219-2.777343-1.304688-2.855468-2.84375-.082032-1.542969 1.019531-2.890625 2.542968-3.121094.59375-.09375 14.726563-2.488281 15.886719-16.230469.125-1.449219 1.269531-2.605469 2.722657-2.734375 1.429687-.125 2.78125.800782 3.164062 2.203125.039062.15625 4.453125 15.839844 15.984375 16.527344 1.429687.085937 2.597656 1.167969 2.792969 2.585937.191406 1.417969-.640625 2.777344-1.996094 3.246094-.160156.054688-16.5625 5.902344-16.820312 17.324219-.035157 1.53125-1.222657 2.792969-2.753907 2.921875-.078125.007812-.164062.011719-.246093.011719zm-9.035157-23.054688c4.210938 2.664063 7.042969 6.785157 8.894531 10.558594 2.75-4.464844 7.03125-7.746094 10.726563-9.945313-4.574219-2.539062-7.769531-6.699218-9.878906-10.445312-2.347657 4.570312-6.035157 7.75-9.742188 9.832031zm0 0" fill="#3a312a" data-original="#3a312a" style="" class=""/><path xmlns="http://www.w3.org/2000/svg" d="m199.542969 21.085938s4.820312 17.90625 18.703125 18.738281c0 0-18.53125 6.402343-18.84375 20.089843 0 0-3.648438-19.199218-18.285156-19.886718 0 0 17.046874-2.582032 18.425781-18.941406zm0 0" fill="#d7e057" data-original="#d7e057" style=""/><path xmlns="http://www.w3.org/2000/svg" d="m199.398438 62.914062c-1.425782 0-2.671876-1.011718-2.945313-2.4375-.03125-.164062-3.40625-16.882812-15.476563-17.453124-1.542968-.074219-2.777343-1.300782-2.855468-2.839844-.082032-1.542969 1.019531-2.890625 2.542968-3.125.59375-.09375 14.726563-2.484375 15.886719-16.226563.125-1.453125 1.269531-2.605469 2.722657-2.734375 1.429687-.125 2.78125.796875 3.164062 2.203125.039062.15625 4.453125 15.839844 15.984375 16.527344 1.429687.085937 2.597656 1.167969 2.792969 2.585937.191406 1.421876-.640625 2.777344-1.996094 3.246094-.160156.054688-16.5625 5.902344-16.820312 17.324219-.035157 1.535156-1.222657 2.792969-2.753907 2.921875-.078125.007812-.164062.007812-.246093.007812zm-9.035157-23.054687c4.210938 2.667969 7.042969 6.789063 8.894531 10.5625 2.75-4.464844 7.03125-7.746094 10.726563-9.945313-4.574219-2.539062-7.769531-6.699218-9.878906-10.449218-2.347657 4.574218-6.035157 7.75-9.742188 9.832031zm0 0" fill="#3a312a" data-original="#3a312a" style="" class=""/><path xmlns="http://www.w3.org/2000/svg" d="m340.695312 449.496094h94.058594v-37.117188c0-22.621094-18.335937-40.960937-40.960937-40.960937h-27.0625v-17.589844c-7.484375 5.191406-15.226563 8.253906-22.746094 8.253906-7.207031 0-14.8125-3.09375-22.269531-8.34375h-.457032v17.683594h-27.078124c-22.621094 0-40.960938 18.335937-40.960938 40.957031v37.117188zm0 0" fill="#fce8cb" data-original="#fce8cb" style="" class=""/><path xmlns="http://www.w3.org/2000/svg" d="m434.753906 452.496094h-94.054687c-1.65625 0-3-1.34375-3-3s1.34375-3 3-3h91.054687v-34.117188c0-20.929687-17.03125-37.957031-37.957031-37.957031h-27.0625c-1.65625 0-3-1.347656-3-3v-12.148437c-6.769531 3.859374-13.390625 5.808593-19.746094 5.808593-6.257812 0-12.875-2.054687-19.726562-6.121093v12.460937c0 1.652344-1.34375 3-3 3h-27.078125c-20.929688 0-37.960938 17.027344-37.960938 37.957031v34.117188h58.914063c1.65625 0 3 1.34375 3 3s-1.34375 3-3 3h-61.914063c-1.65625 0-3-1.34375-3-3v-37.117188c0-24.238281 19.722656-43.957031 43.960938-43.957031h24.078125v-14.683594c0-1.652343 1.34375-3 3-3h.460937c.617188 0 1.222656.195313 1.726563.546875 7.34375 5.171875 14.253906 7.792969 20.539062 7.792969 6.574219 0 13.652344-2.59375 21.039063-7.710937.917968-.640626 2.113281-.710938 3.101562-.195313.988282.519531 1.609375 1.542969 1.609375 2.65625v14.589844h24.058594c24.238281 0 43.960937 19.71875 43.960937 43.957031v37.117188c-.003906 1.660156-1.347656 3.003906-3.003906 3.003906zm0 0" fill="#3a312a" data-original="#3a312a" style="" class=""/><path xmlns="http://www.w3.org/2000/svg" d="m340.695312 449.5h94.058594v-37.132812c0-22.621094-18.339844-40.960938-40.960937-40.960938h-6.472657l.167969.125-28.148437 37.332031-14.527344-10.941406-14.523438 10.941406-28.148437-37.332031.167969-.125h-8.128906c-22.621094 0-40.960938 18.339844-40.960938 40.960938v37.132812zm0 0" fill="#003366" data-original="#8ac6dd" style="" class=""/><path xmlns="http://www.w3.org/2000/svg" d="m434.757812 452.5h-94.058593c-1.65625 0-3-1.34375-3-3s1.34375-3 3-3h91.058593v-34.132812c0-20.929688-17.03125-37.960938-37.960937-37.960938h-4.71875l-27.339844 36.265625c-.996093 1.320313-2.875 1.582031-4.199219.589844l-12.722656-9.585938-12.71875 9.585938c-1.328125.992187-3.207031.726562-4.203125-.589844l-27.339843-36.265625h-6.371094c-20.929688 0-37.960938 17.03125-37.960938 37.960938v34.132812h58.914063c1.65625 0 3 1.34375 3 3s-1.34375 3-3 3h-61.914063c-1.65625 0-3-1.34375-3-3v-37.132812c0-24.238282 19.722656-43.960938 43.960938-43.960938h8.128906c1.296875 0 2.449219.835938 2.851562 2.066406.015626.042969.027344.085938.039063.128906l25.679687 34.058594 12.128907-9.136718c1.066406-.804688 2.542969-.804688 3.609375 0l12.132812 9.136718 25.679688-34.054687c.011718-.042969.023437-.082031.035156-.125.402344-1.234375 1.554688-2.074219 2.855469-2.074219h6.472656c24.242187 0 43.960937 19.722656 43.960937 43.960938v37.132812c0 1.65625-1.347656 3-3 3zm0 0" fill="#3a312a" data-original="#3a312a" style="" class=""/><path xmlns="http://www.w3.org/2000/svg" d="m276.246094 253.976562c-8.785156-1.425781-17.0625 4.539063-18.488282 13.328126-1.425781 8.785156 4.539063 17.0625 13.328126 18.488281 8.785156 1.425781 17.0625-4.539063 18.488281-13.328125 1.425781-8.785156-4.539063-17.0625-13.328125-18.488282zm0 0" fill="#fce8cb" fill-rule="evenodd" data-original="#fce8cb" style="" class=""/><path xmlns="http://www.w3.org/2000/svg" d="m273.65625 289c-10.539062 0-19.117188-8.574219-19.117188-19.117188 0-10.542968 8.574219-19.117187 19.117188-19.117187s19.117188 8.574219 19.117188 19.117187c0 10.542969-8.574219 19.117188-19.117188 19.117188zm0-32.234375c-7.230469 0-13.117188 5.882813-13.117188 13.117187 0 7.234376 5.882813 13.121094 13.117188 13.121094 7.230469 0 13.117188-5.886718 13.117188-13.121094 0-7.234374-5.886719-13.117187-13.117188-13.117187zm0 0" fill="#3a312a" data-original="#3a312a" style="" class=""/><path xmlns="http://www.w3.org/2000/svg" d="m429.230469 263.714844c-3.40625-8.222656-12.835938-12.128906-21.058594-8.722656s-12.128906 12.835937-8.722656 21.058593c3.40625 8.222657 12.835937 12.128907 21.058593 8.722657 8.222657-3.40625 12.128907-12.835938 8.722657-21.058594zm0 0" fill="#fce8cb" fill-rule="evenodd" data-original="#fce8cb" style="" class=""/><path xmlns="http://www.w3.org/2000/svg" d="m414.324219 289c-10.539063 0-19.117188-8.574219-19.117188-19.117188 0-10.542968 8.578125-19.117187 19.117188-19.117187 10.542969 0 19.121093 8.574219 19.121093 19.117187 0 10.542969-8.578124 19.117188-19.121093 19.117188zm0-32.234375c-7.230469 0-13.117188 5.882813-13.117188 13.117187 0 7.234376 5.886719 13.121094 13.117188 13.121094 7.234375 0 13.121093-5.886718 13.121093-13.121094 0-7.234374-5.886718-13.117187-13.121093-13.117187zm0 0" fill="#3a312a" data-original="#3a312a" style="" class=""/><path xmlns="http://www.w3.org/2000/svg" d="m415.4375 262.058594c0 39.460937-38 100.027344-71.445312 100.027344-31.925782 0-71.445313-60.566407-71.445313-100.027344 0-39.457032 31.988281-71.445313 71.445313-71.445313 39.457031 0 71.445312 31.988281 71.445312 71.445313zm0 0" fill="#fce8cb" data-original="#fce8cb" style="" class=""/><path xmlns="http://www.w3.org/2000/svg" d="m343.988281 365.085938c-15.84375 0-34.125-13.304688-50.160156-36.511719-14.976563-21.675781-24.285156-47.164063-24.285156-66.515625 0-41.046875 33.398437-74.445313 74.445312-74.445313 41.050781 0 74.449219 33.394531 74.449219 74.445313 0 19.566406-9.082031 45.046875-23.703125 66.5-15.820313 23.214844-34.316406 36.527344-50.746094 36.527344zm0-171.472657c-37.738281 0-68.445312 30.707031-68.445312 68.449219 0 36.867188 38.238281 97.027344 68.445312 97.027344 14.203125 0 31.316407-12.679688 45.789063-33.90625 13.976562-20.507813 22.660156-44.695313 22.660156-63.121094 0-37.746094-30.707031-68.449219-68.449219-68.449219zm0 0" fill="#3a312a" data-original="#3a312a" style="" class=""/><path xmlns="http://www.w3.org/2000/svg" d="m325.738281 261.253906c0 3.851563-3.121093 6.972656-6.972656 6.972656s-6.972656-3.121093-6.972656-6.972656c0-3.851562 3.121093-6.972656 6.972656-6.972656s6.972656 3.121094 6.972656 6.972656zm0 0" fill="#3a312a" data-original="#3a312a" style="" class=""/><path xmlns="http://www.w3.org/2000/svg" d="m376.191406 261.253906c0 3.851563-3.125 6.972656-6.976562 6.972656-3.851563 0-6.972656-3.121093-6.972656-6.972656 0-3.851562 3.121093-6.972656 6.972656-6.972656 3.851562 0 6.976562 3.121094 6.976562 6.972656zm0 0" fill="#3a312a" data-original="#3a312a" style="" class=""/><path xmlns="http://www.w3.org/2000/svg" d="m316.84375 281.984375c0 4.960937-5.378906 8.980469-12.015625 8.980469-6.632813 0-12.011719-4.019532-12.011719-8.980469 0-4.957031 5.378906-8.976563 12.011719-8.976563 6.636719 0 12.015625 4.019532 12.015625 8.976563zm0 0" fill="#f5978a" data-original="#f5978a" style="" class=""/><path xmlns="http://www.w3.org/2000/svg" d="m395.164062 281.984375c0 4.960937-5.375 8.980469-12.011718 8.980469-6.632813 0-12.011719-4.019532-12.011719-8.980469 0-4.957031 5.378906-8.976563 12.011719-8.976563 6.636718 0 12.011718 4.019532 12.011718 8.976563zm0 0" fill="#f5978a" data-original="#f5978a" style="" class=""/><path xmlns="http://www.w3.org/2000/svg" d="m344.816406 174.84375c-40.84375 0-73.949218 31.652344-73.949218 70.703125 0 4.132813.746093 7.210937 2.136718 11.058594.652344 1.816406 11.242188-3.976563 12.144532-4.613281 4.507812-3.175782 8.195312-7.476563 10.949218-12.234376 1.136719-1.976562 2.085938-3.988281 2.851563-6.003906 2.433593-6.421875 9.058593-24.292968 15.785156-22.890625 9.019531 1.878907 19.238281 2.941407 30.082031 2.941407 10.839844 0 21.0625-1.0625 30.082032-2.941407 6.722656-1.402343 13.347656 16.46875 15.785156 22.890625.765625 2.015625 1.714844 4.027344 2.851562 6.003906 4.550782 7.867188 12.234375 15.359376 21.582032 16.722657.023437-.449219.59375-.605469 1.015624-.757813 3.0625-1.113281 2.632813-7.726562 2.632813-10.175781 0-39.050781-33.109375-70.703125-73.949219-70.703125zm0 0" fill="#cccccc" data-original="#87796f" style="" class=""/><path xmlns="http://www.w3.org/2000/svg" d="m273.574219 259.914062c-.417969 0-.796875-.042968-1.132813-.148437-1.066406-.335937-1.890625-1.117187-2.257812-2.140625-1.390625-3.851562-2.316406-7.378906-2.316406-12.078125 0-40.640625 34.519531-73.703125 76.949218-73.703125 42.429688 0 76.953125 33.0625 76.953125 73.703125l.007813.78125c.050781 3.609375.148437 10.277344-4.402344 12.132813-.105469.121093-.226562.234374-.355469.339843-.652343.539063-1.5.777344-2.335937.652344-9.042969-1.320313-17.921875-8.125-23.742188-18.191406-1.203125-2.085938-2.230468-4.253907-3.058594-6.445313l-.15625-.40625c-7.742187-20.433594-11.503906-20.746094-12.210937-20.613281-9.570313 1.996094-19.894531 3.007813-30.695313 3.007813-10.800781 0-21.128906-1.011719-30.695312-3.007813-.667969-.125-4.46875.179687-12.214844 20.613281l-.152344.40625c-.832031 2.191406-1.863281 4.359375-3.058593 6.4375-3.113281 5.378906-7.199219 9.9375-11.820313 13.191406-.09375.0625-8.84375 5.46875-13.304687 5.46875zm71.242187-82.070312c-39.125 0-70.953125 30.371094-70.953125 67.703125 0 3.082031.457031 5.453125 1.273438 8.03125 2.585937-.9375 7.214843-3.332031 8.308593-4.050781 3.890626-2.742188 7.375-6.644532 10.050782-11.269532 1.035156-1.796874 1.925781-3.671874 2.644531-5.566406l.152344-.40625c5.167969-13.632812 11.046875-26.027344 19.050781-24.355468 9.164062 1.910156 19.078125 2.875 29.46875 2.875 10.386719 0 20.300781-.964844 29.46875-2.875 8.003906-1.671876 13.878906 10.722656 19.046875 24.355468l.152344.40625c.71875 1.894532 1.613281 3.769532 2.648437 5.574219 4.609375 7.972656 11.292969 13.492187 18.09375 15.007813.230469-.121094.488282-.230469.773438-.332032.371094-.363281.84375-1.828125.773437-6.523437l-.007812-.871094c.003906-37.332031-31.824219-67.703125-70.945313-67.703125zm0 0" fill="#3a312a" data-original="#3a312a" style="" class=""/><path xmlns="http://www.w3.org/2000/svg" d="m302.164062 371.511719 14.585938-10.996094 28.140625 37.339844-14.585937 10.992187zm0 0" fill="#cccccc" data-original="#87796f" style="" class=""/><path xmlns="http://www.w3.org/2000/svg" d="m330.289062 411.863281c-.910156 0-1.808593-.414062-2.398437-1.199219l-28.136719-37.335937c-.480468-.632813-.6875-1.433594-.574218-2.222656.109374-.789063.527343-1.5 1.164062-1.976563l14.589844-10.992187c1.316406-.996094 3.203125-.734375 4.199218.589843l28.140626 37.339844c.476562.632813.683593 1.433594.574218 2.222656-.113281.785157-.53125 1.496094-1.167968 1.976563l-14.585938 10.992187c-.539062.40625-1.171875.605469-1.804688.605469zm-23.9375-39.75 24.527344 32.546875 9.796875-7.378906-24.53125-32.546875zm0 0" fill="#3a312a" data-original="#3a312a" style="" class=""/><path xmlns="http://www.w3.org/2000/svg" d="m359.355469 408.847656-14.585938-10.992187 28.140625-37.339844 14.585938 10.992187zm0 0" fill="#cccccc" data-original="#87796f" style="" class=""/><path xmlns="http://www.w3.org/2000/svg" d="m359.339844 411.863281c-.628906 0-1.265625-.199219-1.800782-.605469l-14.585937-10.992187c-.636719-.480469-1.054687-1.191406-1.167969-1.976563-.109375-.792968.097656-1.589843.574219-2.222656l28.140625-37.339844c.996094-1.324218 2.878906-1.585937 4.203125-.589843l14.585937 10.992187c.636719.480469 1.054688 1.191406 1.164063 1.976563.113281.789062-.09375 1.589843-.574219 2.222656l-28.140625 37.335937c-.589843.785157-1.488281 1.199219-2.398437 1.199219zm-10.382813-14.582031 9.796875 7.378906 24.53125-32.546875-9.796875-7.378906zm0 0" fill="#3a312a" data-original="#3a312a" style="" class=""/><path xmlns="http://www.w3.org/2000/svg" d="m287.226562 452.5c-1.65625 0-3-1.34375-3-3v-29.335938c0-1.65625 1.34375-3 3-3s3 1.34375 3 3v29.335938c0 1.65625-1.34375 3-3 3zm0 0" fill="#3a312a" data-original="#3a312a" style="" class=""/><path xmlns="http://www.w3.org/2000/svg" d="m283.550781 188.71875c12.128907 15.269531 26.636719 31.554688 44.160157 36.535156 28.222656 8.023438 78.171874-1.988281 78.171874-42.609375 0-25.972656-21.769531-57.367187-62.402343-33.464843-50.363281 29.628906-79.597657-27.328126-79.597657-1.351563 0 8.210937 3.308594 16.398437 7.652344 23.851563zm0 0" fill="#cccccc" data-original="#87796f" style="" class=""/><path xmlns="http://www.w3.org/2000/svg" d="m347.460938 230.796875c-7.449219 0-14.539063-.941406-20.570313-2.65625-18.007813-5.121094-32.601563-21.078125-45.6875-37.554687-.035156-.042969-.066406-.089844-.101563-.136719l-12.023437-17.039063c-.046875-.070312-.097656-.144531-.136719-.21875-5.421875-9.304687-8.058594-17.597656-8.058594-25.359375 0-3.402343.394532-7.535156 3.476563-9.277343 3.640625-2.066407 7.917969.496093 14.394531 4.382812 12.859375 7.710938 34.378906 20.617188 63.207032 3.660156 21.8125-12.832031 36.953124-9.484375 45.808593-4.417968 14.585938 8.34375 21.113281 26.335937 21.113281 40.46875 0 14.332031-5.988281 26.429687-17.324218 34.992187-12.238282 9.242187-28.914063 13.15625-44.097656 13.15625zm-61.507813-43.875c12.449219 15.667969 26.222656 30.796875 42.574219 35.445313 16.90625 4.808593 42.738281 3.078124 59.414062-9.515626 9.914063-7.488281 14.941406-17.648437 14.941406-30.203124 0-12.402344-5.59375-28.113282-18.09375-35.261719-10.730468-6.132813-24.488281-4.621094-39.785156 4.382812-31.894531 18.761719-56.25 4.160157-69.339844-3.691406-3.078124-1.847656-6.875-4.125-8.296874-4.238281-.167969.375-.484376 1.429687-.484376 3.988281 0 6.640625 2.347657 13.914063 7.175782 22.230469zm0 0" fill="#3a312a" data-original="#3a312a" style="" class=""/><path xmlns="http://www.w3.org/2000/svg" d="m343.988281 323.015625c-10.472656 0-18.027343-4.710937-22.449219-14-.714843-1.496094-.078124-3.285156 1.417969-4 1.5-.707031 3.285157-.074219 4 1.417969 3.4375 7.21875 8.847657 10.582031 17.03125 10.582031 10.332031 0 15.597657-6.765625 16.933594-10.339844.582031-1.554687 2.3125-2.339843 3.863281-1.761719 1.550782.582032 2.339844 2.308594 1.757813 3.863282-2.570313 6.855468-10.722657 14.238281-22.554688 14.238281zm0 0" fill="#3a312a" data-original="#3a312a" style="" class=""/><path xmlns="http://www.w3.org/2000/svg" d="m402.402344 452.5c-1.65625 0-3-1.34375-3-3v-29.335938c0-1.65625 1.34375-3 3-3s3 1.34375 3 3v29.335938c0 1.65625-1.34375 3-3 3zm0 0" fill="#3a312a" data-original="#3a312a" style="" class=""/><path xmlns="http://www.w3.org/2000/svg" d="m28.824219 350.589844v55.347656h153.339843v-175.511719h-153.339843zm0 0" fill="#cccccc" data-original="#87796f" style="" class=""/><path xmlns="http://www.w3.org/2000/svg" d="m182.164062 408.9375h-153.339843c-1.65625 0-3-1.34375-3-3v-55.347656c0-1.65625 1.34375-3 3-3s3 1.34375 3 3v52.347656h147.339843v-169.511719h-147.339843v90.652344c0 1.65625-1.34375 3-3 3s-3-1.34375-3-3v-93.652344c0-1.65625 1.34375-3 3-3h153.339843c1.65625 0 3 1.34375 3 3v175.511719c0 1.65625-1.34375 3-3 3zm0 0" fill="#3a312a" data-original="#3a312a" style="" class=""/><path xmlns="http://www.w3.org/2000/svg" d="m197.277344 412.378906v37.117188h-181.535156v-37.117188c0-22.621094 18.335937-40.960937 40.960937-40.960937h27.078125v-17.679688h.457031c7.457031 5.25 15.0625 8.339844 22.273438 8.339844 7.515625 0 15.257812-3.058594 22.742187-8.25v17.589844h27.0625c22.625.003906 40.960938 18.339843 40.960938 40.960937zm0 0" fill="#fce8cb" data-original="#fce8cb" style="" class=""/><path xmlns="http://www.w3.org/2000/svg" d="m197.277344 452.496094h-181.535156c-1.652344 0-3-1.34375-3-3v-37.117188c0-24.238281 19.722656-43.957031 43.960937-43.957031h24.078125v-14.683594c0-1.652343 1.34375-3 3-3h.457031c.621094 0 1.222657.195313 1.726563.546875 7.34375 5.171875 14.257812 7.792969 20.542968 7.792969 6.574219 0 13.648438-2.59375 21.035157-7.710937.917969-.640626 2.113281-.710938 3.101562-.195313.988281.519531 1.609375 1.542969 1.609375 2.65625v14.589844h24.058594c24.242188 0 43.960938 19.71875 43.960938 43.957031v37.117188c.003906 1.660156-1.339844 3.003906-2.996094 3.003906zm-178.535156-6h175.535156v-34.117188c0-20.929687-17.03125-37.957031-37.960938-37.957031h-27.058594c-1.65625 0-3-1.347656-3-3v-12.148437c-6.769531 3.859374-13.390624 5.808593-19.742187 5.808593-6.257813 0-12.878906-2.054687-19.730469-6.121093v12.460937c0 1.652344-1.34375 3-3 3h-27.082031c-20.929687 0-37.957031 17.027344-37.957031 37.957031v34.117188zm0 0" fill="#3a312a" data-original="#3a312a" style="" class=""/><path xmlns="http://www.w3.org/2000/svg" d="m197.277344 412.367188v37.132812h-181.535156v-37.132812c0-22.621094 18.335937-40.960938 40.960937-40.960938h8.128906l-.167969.125 28.148438 37.332031 14.527344-10.945312 14.523437 10.945312 28.148438-37.332031-.167969-.125h6.472656c22.625 0 40.960938 18.335938 40.960938 40.960938zm0 0" fill="#ffcc00" data-original="#f16c7a" style="" class=""/><path xmlns="http://www.w3.org/2000/svg" d="m197.277344 452.5h-181.535156c-1.652344 0-3-1.34375-3-3v-37.132812c0-24.238282 19.722656-43.960938 43.960937-43.960938h8.125c1.296875 0 2.449219.835938 2.855469 2.066406.011718.042969.027344.085938.039062.128906l25.679688 34.058594 12.128906-9.136718c1.066406-.804688 2.542969-.804688 3.609375 0l12.132813 9.136718 25.679687-34.058594c.011719-.042968.023437-.085937.039063-.128906.402343-1.230468 1.554687-2.066406 2.851562-2.066406h6.472656c24.238282 0 43.960938 19.722656 43.960938 43.960938v37.132812c0 1.65625-1.34375 3-3 3zm-178.535156-6h175.535156v-34.132812c0-20.929688-17.03125-37.960938-37.957032-37.960938h-4.71875l-27.339843 36.265625c-.996094 1.320313-2.878907 1.582031-4.203125.589844l-12.71875-9.585938-12.71875 9.585938c-1.328125.992187-3.210938.726562-4.199219-.589844l-27.34375-36.265625h-6.371094c-20.933593 0-37.960937 17.03125-37.960937 37.960938v34.132812zm0 0" fill="#3a312a" data-original="#3a312a" style="" class=""/><path xmlns="http://www.w3.org/2000/svg" d="m39.871094 254.214844c-8.664063-2.042969-17.34375 3.320312-19.386719 11.980468-2.046875 8.664063 3.316406 17.34375 11.980469 19.390626 8.660156 2.042968 17.339844-3.320313 19.386718-11.980469 2.046876-8.664063-3.320312-17.34375-11.980468-19.390625zm0 0" fill="#fce8cb" fill-rule="evenodd" data-original="#fce8cb" style="" class=""/><path xmlns="http://www.w3.org/2000/svg" d="m36.179688 289c-10.542969 0-19.121094-8.574219-19.121094-19.117188 0-10.542968 8.578125-19.117187 19.121094-19.117187 10.539062 0 19.117187 8.574219 19.117187 19.117187-.003906 10.542969-8.578125 19.117188-19.117187 19.117188zm0-32.234375c-7.234376 0-13.121094 5.882813-13.121094 13.117187 0 7.234376 5.886718 13.121094 13.121094 13.121094 7.230468 0 13.117187-5.886718 13.117187-13.121094-.003906-7.234374-5.886719-13.117187-13.117187-13.117187zm0 0" fill="#3a312a" data-original="#3a312a" style="" class=""/><path xmlns="http://www.w3.org/2000/svg" d="m192.964844 269.882812c0 8.902344-7.214844 16.117188-16.113282 16.117188-8.902343 0-16.117187-7.214844-16.117187-16.117188 0-8.902343 7.214844-16.113281 16.117187-16.113281 8.898438-.003906 16.113282 7.210938 16.113282 16.113281zm0 0" fill="#fce8cb" fill-rule="evenodd" data-original="#fce8cb" style="" class=""/><path xmlns="http://www.w3.org/2000/svg" d="m176.847656 289c-10.542968 0-19.117187-8.574219-19.117187-19.117188 0-10.542968 8.574219-19.117187 19.117187-19.117187 10.542969 0 19.117188 8.574219 19.117188 19.117187 0 10.542969-8.578125 19.117188-19.117188 19.117188zm0-32.234375c-7.230468 0-13.117187 5.882813-13.117187 13.117187 0 7.234376 5.882812 13.121094 13.117187 13.121094 7.230469 0 13.117188-5.886718 13.117188-13.121094 0-7.234374-5.886719-13.117187-13.117188-13.117187zm0 0" fill="#3a312a" data-original="#3a312a" style="" class=""/><path xmlns="http://www.w3.org/2000/svg" d="m177.960938 262.058594c0 39.460937-38.003907 100.027344-71.449219 100.027344-31.921875 0-71.445313-60.566407-71.445313-100.027344 0-39.457032 31.988282-71.445313 71.445313-71.445313 39.460937 0 71.449219 31.988281 71.449219 71.445313zm0 0" fill="#fce8cb" data-original="#fce8cb" style="" class=""/><path xmlns="http://www.w3.org/2000/svg" d="m106.515625 365.085938c-15.847656 0-34.128906-13.304688-50.164063-36.511719-14.980468-21.675781-24.285156-47.164063-24.285156-66.515625 0-41.046875 33.394532-74.445313 74.449219-74.445313 41.050781 0 74.445313 33.394531 74.445313 74.445313 0 19.566406-9.082032 45.046875-23.703126 66.5-15.820312 23.214844-34.316406 36.527344-50.742187 36.527344zm0-171.472657c-37.742187 0-68.449219 30.707031-68.449219 68.449219 0 36.867188 38.238282 97.027344 68.449219 97.027344 14.199219 0 31.3125-12.679688 45.785156-33.90625 13.976563-20.507813 22.660157-44.699219 22.660157-63.121094 0-37.746094-30.703126-68.449219-68.445313-68.449219zm0 0" fill="#3a312a" data-original="#3a312a" style="" class=""/><path xmlns="http://www.w3.org/2000/svg" d="m88.261719 261.253906c0 3.851563-3.121094 6.972656-6.972657 6.972656-3.851562 0-6.976562-3.121093-6.976562-6.972656 0-3.851562 3.125-6.972656 6.976562-6.972656 3.851563 0 6.972657 3.121094 6.972657 6.972656zm0 0" fill="#3a312a" data-original="#3a312a" style="" class=""/><path xmlns="http://www.w3.org/2000/svg" d="m138.710938 261.253906c0 3.851563-3.121094 6.972656-6.972657 6.972656-3.851562 0-6.972656-3.121093-6.972656-6.972656 0-3.851562 3.121094-6.972656 6.972656-6.972656 3.851563 0 6.972657 3.121094 6.972657 6.972656zm0 0" fill="#3a312a" data-original="#3a312a" style="" class=""/><path xmlns="http://www.w3.org/2000/svg" d="m79.363281 281.984375c0 4.960937-5.378906 8.980469-12.011719 8.980469-6.636718 0-12.011718-4.019532-12.011718-8.980469 0-4.957031 5.375-8.976563 12.011718-8.976563 6.632813 0 12.011719 4.019532 12.011719 8.976563zm0 0" fill="#f5978a" data-original="#f5978a" style="" class=""/><path xmlns="http://www.w3.org/2000/svg" d="m157.6875 281.984375c0 4.960937-5.378906 8.980469-12.011719 8.980469-6.632812 0-12.011719-4.019532-12.011719-8.980469 0-4.957031 5.378907-8.976563 12.011719-8.976563 6.632813 0 12.011719 4.019532 12.011719 8.976563zm0 0" fill="#f5978a" data-original="#f5978a" style="" class=""/><path xmlns="http://www.w3.org/2000/svg" d="m64.6875 371.515625 14.585938-10.992187 28.140624 37.339843-14.582031 10.992188zm0 0" fill="#cccccc" data-original="#87796f" style="" class=""/><path xmlns="http://www.w3.org/2000/svg" d="m92.8125 411.863281c-.910156 0-1.808594-.414062-2.398438-1.199219l-28.136718-37.335937c-.480469-.632813-.6875-1.433594-.574219-2.222656.109375-.789063.527344-1.496094 1.164063-1.976563l14.585937-10.992187c1.320313-.996094 3.203125-.734375 4.199219.589843l28.140625 37.339844c.476562.632813.683593 1.433594.574219 2.222656-.113282.785157-.53125 1.496094-1.167969 1.976563l-14.585938 10.992187c-.539062.40625-1.171875.605469-1.800781.605469zm-23.9375-39.75 24.527344 32.546875 9.796875-7.378906-24.527344-32.546875zm0 0" fill="#3a312a" data-original="#3a312a" style="" class=""/><path xmlns="http://www.w3.org/2000/svg" d="m121.875 408.855469-14.585938-10.992188 28.140626-37.339843 14.585937 10.992187zm0 0" fill="#cccccc" data-original="#87796f" style="" class=""/><g xmlns="http://www.w3.org/2000/svg" fill="#3a312a"><path d="m121.863281 411.863281c-.628906 0-1.261719-.199219-1.800781-.605469l-14.585938-10.992187c-.636718-.480469-1.054687-1.191406-1.167968-1.976563-.109375-.792968.097656-1.589843.574218-2.222656l28.140626-37.339844c.996093-1.324218 2.878906-1.585937 4.199218-.589843l14.585938 10.992187c.636718.480469 1.054687 1.191406 1.167968 1.976563.113282.789062-.097656 1.589843-.574218 2.222656l-28.136719 37.335937c-.59375.785157-1.492187 1.199219-2.402344 1.199219zm-10.382812-14.582031 9.796875 7.378906 24.527344-32.546875-9.792969-7.378906zm0 0" fill="#3a312a" data-original="#3a312a" style="" class=""/><path d="m49.746094 452.5c-1.652344 0-3-1.34375-3-3v-29.335938c0-1.65625 1.347656-3 3-3 1.65625 0 3 1.34375 3 3v29.335938c0 1.65625-1.34375 3-3 3zm0 0" fill="#3a312a" data-original="#3a312a" style="" class=""/><path d="m164.929688 452.5c-1.65625 0-3-1.34375-3-3v-29.335938c0-1.65625 1.34375-3 3-3s3 1.34375 3 3v29.335938c0 1.65625-1.34375 3-3 3zm0 0" fill="#3a312a" data-original="#3a312a" style="" class=""/><path d="m106.511719 323.015625c-10.472657 0-18.03125-4.710937-22.453125-14-.707032-1.496094-.074219-3.289063 1.421875-4 1.496093-.707031 3.289062-.074219 3.996093 1.421875 3.4375 7.214844 8.847657 10.578125 17.035157 10.578125 10.332031 0 15.59375-6.765625 16.929687-10.339844.582032-1.554687 2.3125-2.339843 3.863282-1.761719 1.550781.582032 2.339843 2.308594 1.757812 3.863282-2.570312 6.855468-10.71875 14.238281-22.550781 14.238281zm0 0" fill="#3a312a" data-original="#3a312a" style="" class=""/></g><path xmlns="http://www.w3.org/2000/svg" d="m187.824219 235.875c0 7.320312-.953125 14.414062-2.753907 21.167969-18.296874-8.820313-35.703124-19.652344-51.832031-31.898438-4.730469-3.585937-9.386719-7.320312-13.835937-11.277343-5.460938-4.789063-10.621094-9.953126-15.28125-15.546876-10.132813-12.199218-17.570313-26.214843-23.863282-40.808593 7.945313-2.574219 16.425782-3.960938 25.230469-3.960938 23.554688 0 44.796875 9.894531 59.808594 25.753907 13.972656 14.746093 22.527344 34.652343 22.527344 56.570312zm0 0" fill="#cccccc" data-original="#87796f" style="" class=""/><path xmlns="http://www.w3.org/2000/svg" d="m185.070312 260.046875c-.445312 0-.886718-.101563-1.300781-.300781-18.027343-8.691406-35.640625-19.527344-52.34375-32.207032-5.328125-4.042968-9.914062-7.777343-14.019531-11.425781-5.851562-5.132812-11.101562-10.476562-15.589844-15.871093-9.085937-10.9375-16.808594-24.136719-24.3125-41.539063-.335937-.777344-.328125-1.65625.023438-2.425781.347656-.769532 1.003906-1.355469 1.808594-1.617188 8.402343-2.722656 17.207031-4.101562 26.152343-4.101562 23.683594 0 45.699219 9.480468 61.988281 26.691406 15.054688 15.886719 23.347657 36.707031 23.347657 58.625 0 7.464844-.957031 14.84375-2.855469 21.945312-.230469.867188-.832031 1.582032-1.644531 1.957032-.398438.175781-.824219.269531-1.253907.269531zm-100.703124-100.636719c6.84375 15.34375 13.894531 27.160156 22.0625 36.996094 4.289062 5.148438 9.316406 10.269531 14.949218 15.207031 4 3.558594 8.46875 7.199219 13.671875 11.144531 15.355469 11.65625 31.480469 21.71875 47.984375 29.945313 1.1875-5.488281 1.789063-11.132813 1.789063-16.832031 0-20.375-7.707031-39.730469-21.703125-54.5-15.148438-16.003906-35.613282-24.816406-57.628906-24.816406-7.199219 0-14.289063.960937-21.125 2.855468zm0 0" fill="#3a312a" data-original="#3a312a" style="" class=""/><path xmlns="http://www.w3.org/2000/svg" d="m165.300781 179.308594c-14.164062 12.914062-29.578125 24.339844-45.898437 34.5625-28.9375 18.136718-60.671875 32.445312-93.148438 44.363281-2.011718-7.109375-3.082031-14.609375-3.082031-22.359375 0-36.660156 23.96875-67.726562 57.085937-78.363281 7.945313-2.574219 16.425782-3.957031 25.230469-3.957031 23.554688 0 44.800781 9.894531 59.8125 25.753906zm0 0" fill="#cccccc" data-original="#87796f" style="" class=""/><path xmlns="http://www.w3.org/2000/svg" d="m26.253906 261.234375c-.46875 0-.941406-.109375-1.367187-.328125-.742188-.378906-1.292969-1.050781-1.523438-1.855469-2.121093-7.5-3.191406-15.296875-3.191406-23.179687 0-37.210938 23.777344-69.847656 59.167969-81.21875 8.398437-2.71875 17.199218-4.097656 26.148437-4.097656 23.683594 0 45.695313 9.480468 61.988281 26.691406.550782.582031.847657 1.367187.816407 2.175781-.027344.800781-.378907 1.5625-.976563 2.105469-13.660156 12.453125-29.246094 24.1875-46.328125 34.882812-26.554687 16.648438-57.210937 31.25-93.707031 44.640625-.328125.125-.679688.183594-1.027344.183594zm79.234375-104.679687c-8.320312 0-16.5 1.28125-24.304687 3.8125-32.90625 10.570312-55.011719 40.914062-55.011719 75.503906 0 6.234375.722656 12.410156 2.148437 18.398437 34.738282-12.929687 64.039063-26.992187 89.484376-42.945312 15.820312-9.902344 30.328124-20.710938 43.160156-32.148438-14.90625-14.613281-34.488282-22.621093-55.476563-22.621093zm0 0" fill="#3a312a" data-original="#3a312a" style="" class=""/><path xmlns="http://www.w3.org/2000/svg" d="m3.25 64.386719c0-33.902344 31.035156-61.386719 69.316406-61.386719 38.285156 0 69.320313 27.484375 69.320313 61.386719 0 15.535156-6.527344 29.707031-17.269531 40.519531l10.917968 27.515625c1.050782 2.640625-1.464844 5.308594-4.164062 4.421875l-40.359375-13.285156c-5.875 1.433594-12.054688 2.214844-18.445313 2.214844-17.660156 0-33.765625-5.859376-46.003906-15.488282-.101562-.078125-.203125-.152344-.300781-.230468-.675781-.539063-1.335938-1.09375-1.988281-1.652344-2.042969-1.75-3.976563-3.59375-5.761719-5.546875.011719-.003907.027343-.007813.042969-.011719-9.566407-10.527344-15.304688-23.894531-15.304688-38.457031zm0 0" fill="#003366" data-original="#8ac6dd" style="" class=""/><path xmlns="http://www.w3.org/2000/svg" d="m132.445312 140.019531c-.667968 0-1.347656-.109375-2.011718-.328125l-39.550782-13.019531c-5.992187 1.394531-12.148437 2.101563-18.3125 2.101563-17.640624 0-34.640624-5.730469-47.863281-16.128907l-.296875-.230469c-.71875-.574218-1.40625-1.152343-2.089844-1.734374-2.195312-1.878907-4.222656-3.832032-6.023437-5.800782-.113281-.125-.21875-.261718-.308594-.40625-10.152343-11.347656-15.738281-25.5625-15.738281-40.085937 0-35.503907 32.441406-64.386719 72.316406-64.386719 39.878906 0 72.320313 28.882812 72.320313 64.386719 0 15.089843-5.941407 29.652343-16.769531 41.210937l10.207031 25.714844c.917969 2.316406.429687 4.886719-1.28125 6.703125-1.230469 1.304687-2.886719 2.003906-4.597657 2.003906zm-41.429687-19.460937c.3125 0 .632813.050781.9375.148437l40.355469 13.285157c.074218.027343.214844.074218.371094-.089844.152343-.164063.097656-.304688.066406-.375l-10.917969-27.511719c-.4375-1.113281-.179687-2.375.660156-3.222656 10.574219-10.644531 16.398438-24.28125 16.398438-38.40625 0-32.191407-29.75-58.382813-66.316407-58.382813-36.566406 0-66.320312 26.1875-66.320312 58.382813 0 13.382812 5.023438 25.984375 14.527344 36.4375.105468.117187.199218.242187.285156.371093 1.550781 1.664063 3.285156 3.320313 5.164062 4.925782.628907.542968 1.257813 1.074218 1.90625 1.589844l.28125.21875c12.175782 9.574218 27.855469 14.84375 44.15625 14.84375 5.976563 0 11.945313-.71875 17.734376-2.128907.234374-.058593.472656-.085937.710937-.085937zm0 0" fill="#3a312a" data-original="#3a312a" style="" class=""/><path xmlns="http://www.w3.org/2000/svg" d="m447.25 64.386719c0-33.902344-31.035156-61.386719-69.316406-61.386719-38.285156 0-69.320313 27.484375-69.320313 61.386719 0 15.535156 6.527344 29.707031 17.269531 40.519531l-10.917968 27.515625c-1.050782 2.640625 1.464844 5.308594 4.164062 4.421875l40.359375-13.285156c5.875 1.433594 12.054688 2.214844 18.445313 2.214844 17.65625 0 33.765625-5.859376 46.003906-15.488282.101562-.078125.203125-.152344.300781-.230468.675781-.539063 1.335938-1.09375 1.988281-1.652344 2.042969-1.75 3.976563-3.59375 5.761719-5.546875-.011719-.003907-.027343-.007813-.042969-.011719 9.566407-10.527344 15.304688-23.894531 15.304688-38.457031zm0 0" fill="#ffcc00" data-original="#f16c7a" style="" class=""/><path xmlns="http://www.w3.org/2000/svg" d="m318.054688 140.019531c-1.710938 0-3.367188-.703125-4.597657-2.003906-1.710937-1.816406-2.203125-4.382813-1.28125-6.703125l10.203125-25.714844c-10.828125-11.558594-16.769531-26.121094-16.769531-41.210937 0-35.503907 32.441406-64.386719 72.320313-64.386719 39.875 0 72.320312 28.882812 72.320312 64.386719 0 14.523437-5.589844 28.746093-15.742188 40.09375-.089843.140625-.191406.273437-.304687.398437-1.796875 1.96875-3.824219 3.921875-6.027344 5.804688-.675781.578125-1.363281 1.15625-2.066406 1.71875-.019531.011718-.183594.140625-.203125.15625-13.335938 10.484375-30.332031 16.214844-47.972656 16.214844-6.167969 0-12.324219-.707032-18.316406-2.101563l-39.550782 13.019531c-.664062.21875-1.34375.328125-2.011718.328125zm59.878906-134.019531c-36.570313 0-66.320313 26.191406-66.320313 58.386719 0 14.125 5.824219 27.761719 16.398438 38.40625.839843.84375 1.101562 2.109375.660156 3.21875l-10.917969 27.515625c-.027344.066406-.082031.207031.070313.371094.15625.164062.296875.117187.367187.09375l40.359375-13.285157c.527344-.175781 1.101563-.199219 1.648438-.066406 5.789062 1.414063 11.757812 2.128906 17.734375 2.128906 16.300781 0 31.980468-5.273437 44.148437-14.839843.015625-.007813.175781-.136719.1875-.144532.746094-.589844 1.375-1.125 2-1.660156 1.886719-1.613281 3.625-3.269531 5.175781-4.9375.082032-.128906.175782-.25.28125-.363281 9.5-10.457031 14.527344-23.054688 14.527344-36.441407-.003906-32.191406-29.753906-58.382812-66.320312-58.382812zm0 0" fill="#3a312a" data-original="#3a312a" style="" class=""/><path xmlns="http://www.w3.org/2000/svg" d="m389.144531 82.019531h-20.710937l-2.878906 9.746094h-18.628907l22.191407-59.046875h19.902343l22.183594 59.046875h-19.105469zm-3.78125-12.765625-6.515625-21.226562-6.453125 21.226562zm0 0" fill="#cccccc" data-original="#87796f" style="" class=""/><path xmlns="http://www.w3.org/2000/svg" d="m411.207031 94.765625h-19.105469c-1.324218 0-2.488281-.867187-2.875-2.128906l-2.304687-7.617188h-16.246094l-2.242187 7.597657c-.375 1.273437-1.546875 2.148437-2.875 2.148437h-18.632813c-.984375 0-1.90625-.480469-2.464843-1.292969-.5625-.808594-.6875-1.839844-.34375-2.761718l22.195312-59.046876c.441406-1.171874 1.558594-1.945312 2.808594-1.945312h19.902344c1.25 0 2.367187.773438 2.804687 1.945312l22.191406 59.046876c.34375.921874.214844 1.953124-.34375 2.761718-.558593.8125-1.484375 1.292969-2.46875 1.292969zm-16.882812-6h12.550781l-19.933594-53.046875h-15.746094l-19.941406 53.046875h12.058594l2.242188-7.59375c.375-1.277344 1.546874-2.152344 2.875-2.152344h20.710937c1.324219 0 2.488281.867188 2.875 2.128907zm-8.960938-16.515625h-12.964843c-.949219 0-1.84375-.449219-2.410157-1.214844-.566406-.761718-.734375-1.75-.460937-2.65625l6.449218-21.226562c.386719-1.261719 1.546876-2.125 2.871094-2.128906h.003906c1.316407 0 2.476563.859374 2.867188 2.121093l6.515625 21.226563c.28125.910156.113281 1.898437-.457031 2.664062-.566406.765625-1.464844 1.214844-2.414063 1.214844zm-8.917969-6h4.859376l-2.441407-7.957031zm0 0" fill="#3a312a" data-original="#3a312a" style="" class=""/><path xmlns="http://www.w3.org/2000/svg" d="m94.574219 83.144531c2.28125 1.585938 3.773437 2.578125 4.472656 2.980469 1.046875.59375 2.457031 1.277344 4.230469 2.054688l-5.074219 10.230468c-2.554687-1.234375-5.074219-2.707031-7.574219-4.410156-2.496094-1.707031-4.242187-2.988281-5.234375-3.847656-4.027343 1.746094-9.078125 2.617187-15.144531 2.617187-8.96875 0-16.046875-2.335937-21.226562-7.007812-6.121094-5.53125-9.183594-13.304688-9.183594-23.320313 0-9.71875 2.679687-17.269531 8.035156-22.65625 5.359375-5.382812 12.839844-8.074218 22.457031-8.074218 9.800781 0 17.363281 2.632812 22.695313 7.894531 5.332031 5.261719 7.996094 12.792969 7.996094 22.59375-.003907 8.730469-2.152344 15.710937-6.449219 20.945312zm-13.976563-9.34375c1.449219-2.601562 2.175782-6.496093 2.175782-11.679687 0-5.960938-1.109376-10.214844-3.324219-12.765625-2.214844-2.550781-5.269531-3.828125-9.164063-3.828125-3.625 0-6.566406 1.304687-8.820312 3.90625-2.253906 2.605468-3.382813 6.671875-3.382813 12.203125 0 6.445312 1.101563 10.96875 3.304688 13.574219 2.203125 2.601562 5.222656 3.90625 9.0625 3.90625 1.234375 0 2.402343-.121094 3.503906-.359376-1.53125-1.476562-3.945313-2.875-7.25-4.191406l2.859375-6.5625c1.613281.292969 2.867188.65625 3.765625 1.085938.898437.429687 2.652344 1.558594 5.257813 3.382812.613281.429688 1.285156.875 2.011718 1.328125zm0 0" fill="#cccccc" data-original="#87796f" style="" class=""/><path xmlns="http://www.w3.org/2000/svg" d="m98.199219 101.410156c-.441407 0-.886719-.09375-1.304688-.296875-2.664062-1.292969-5.339843-2.847656-7.957031-4.636719-1.6875-1.148437-3.035156-2.109374-4.066406-2.894531-4.074219 1.453125-8.984375 2.191407-14.625 2.191407-9.691406 0-17.507813-2.621094-23.234375-7.78125-6.75-6.101563-10.171875-14.695313-10.171875-25.546876 0-10.496093 2.996094-18.832031 8.90625-24.773437 5.917968-5.945313 14.1875-8.957031 24.582031-8.957031 10.570313 0 18.914063 2.945312 24.800781 8.757812 5.898438 5.824219 8.890625 14.144532 8.890625 24.730469 0 8.03125-1.75 14.8125-5.214843 20.210937.96875.648438 1.472656.964844 1.734374 1.113282.9375.53125 2.269532 1.175781 3.9375 1.910156.753907.328125 1.335938.949219 1.617188 1.71875.28125.773438.230469 1.625-.132812 2.359375l-5.074219 10.230469c-.523438 1.054687-1.585938 1.664062-2.6875 1.664062zm-12.808594-14.257812c.707031 0 1.40625.25 1.960937.734375.894532.773437 2.566407 2 4.964844 3.636719 1.503906 1.027343 3.027344 1.96875 4.550782 2.820312l2.347656-4.734375c-.613282-.308594-1.164063-.59375-1.648438-.871094-.519531-.296875-1.546875-.933593-4.707031-3.125-.6875-.480469-1.144531-1.222656-1.257813-2.050781-.117187-.832031.121094-1.667969.648438-2.316406 3.824219-4.664063 5.765625-11.070313 5.765625-19.042969 0-8.921875-2.390625-15.804687-7.105469-20.460937-4.722656-4.664063-11.648437-7.027344-20.585937-7.027344-8.863281 0-15.511719 2.351562-20.328125 7.191406-4.753906 4.777344-7.160156 11.6875-7.160156 20.539062 0 9.210938 2.679687 16.113282 8.191406 21.09375 4.589844 4.136719 11.054687 6.234376 19.214844 6.234376 5.628906 0 10.320312-.796876 13.953124-2.371094.382813-.167969.789063-.25 1.195313-.25zm-14.941406-5.03125c-4.746094 0-8.566407-1.675782-11.351563-4.972656-2.703125-3.191407-4.015625-8.265626-4.015625-15.507813 0-6.335937 1.347657-10.96875 4.117188-14.167969 2.839843-3.28125 6.570312-4.945312 11.089843-4.945312 4.78125 0 8.625 1.632812 11.425782 4.859375 2.734375 3.148437 4.058594 7.96875 4.058594 14.734375 0 5.753906-.835938 10.050781-2.554688 13.140625-.398438.71875-1.078125 1.242187-1.875 1.445312s-1.644531.074219-2.339844-.363281c-.769531-.484375-1.480468-.953125-2.136718-1.410156-3.222657-2.257813-4.410157-2.9375-4.832032-3.136719-.171875-.082031-.410156-.179687-.730468-.285156l-.65625 1.515625c2.285156 1.113281 4.0625 2.289062 5.386718 3.570312.792969.769532 1.105469 1.914063.804688 2.976563-.300782 1.0625-1.164063 1.875-2.242188 2.113281-1.308594.285156-2.707031.433594-4.148437.433594zm-.160157-33.59375c-2.738281 0-4.878906.941406-6.554687 2.871094-1.757813 2.035156-2.648437 5.480468-2.648437 10.242187 0 7.082031 1.410156 10.234375 2.59375 11.636719.070312.082031.140624.164062.214843.246094.015625-.050782.039063-.101563.058594-.152344l2.859375-6.5625c.554688-1.28125 1.917969-2.011719 3.292969-1.753906 1.886719.34375 3.363281.78125 4.515625 1.328124.601562.289063 1.707031.890626 4.5 2.808594.433594-1.90625.65625-4.265625.65625-7.070312 0-5.113282-.894532-8.847656-2.589844-10.804688-1.636719-1.875-3.890625-2.789062-6.898438-2.789062zm0 0" fill="#3a312a" data-original="#3a312a" style="" class=""/><path xmlns="http://www.w3.org/2000/svg" d="m431.75 412.359375v34.140625h-26.339844v-26.339844c0-1.660156-1.339844-3-3-3-.21875 0-.460937.019532-.660156.078125v-4.878906c0-13.320313-6.898438-25.058594-17.300781-31.820313l4.621093-6.140624h4.71875c20.941407 0 37.960938 17.042968 37.960938 37.960937zm0 0" fill="#003366" data-original="#6ca8bf" style="" class=""/><path xmlns="http://www.w3.org/2000/svg" d="m194.269531 412.359375v34.140625h-26.339843v-26.339844c0-1.660156-1.339844-3-3-3-.21875 0-.460938.019532-.660157.078125v-4.878906c0-13.320313-6.898437-25.058594-17.300781-31.820313l4.621094-6.140624h4.71875c20.941406 0 37.960937 17.042968 37.960937 37.960937zm0 0" fill="#ffcc00" data-original="#d34e5c" style="" class=""/></g></svg>
